<svg xmlns="http://www.w3.org/2000/svg" width="85" height="80" fill="none" viewBox="0 0 85 80">
    <g clip-path="url(#clip0)">
        <path fill="#484848" d="M12.662 0H2.788C1.425 0 .32 1.05.32 2.343v9.529c0 1.294 1.105 2.343 2.468 2.343s2.469-1.05 2.469-2.343V4.686h7.405c1.363 0 2.468-1.049 2.468-2.343S14.025 0 12.662 0z"/>
        <path fill="url(#paint0_linear)" d="M12.662 0H2.788C1.425 0 .32 1.05.32 2.343v9.529c0 1.294 1.105 2.343 2.468 2.343s2.469-1.05 2.469-2.343V4.686h7.405c1.363 0 2.468-1.049 2.468-2.343S14.025 0 12.662 0z"/>
        <path fill="#484848" d="M82.64 0h-9.873c-1.363 0-2.468 1.05-2.468 2.343 0 1.294 1.104 2.343 2.468 2.343h7.405v7.186c0 1.294 1.106 2.343 2.469 2.343 1.363 0 2.468-1.05 2.468-2.343V2.343C85.11 1.05 84.004 0 82.641 0z"/>
        <path fill="url(#paint1_linear)" d="M82.64 0h-9.873c-1.363 0-2.468 1.05-2.468 2.343 0 1.294 1.104 2.343 2.468 2.343h7.405v7.186c0 1.294 1.106 2.343 2.469 2.343 1.363 0 2.468-1.05 2.468-2.343V2.343C85.11 1.05 84.004 0 82.641 0z"/>
        <path fill="#484848" d="M12.662 74.943H5.256v-7.185c0-1.294-1.105-2.343-2.468-2.343S.319 66.464.319 67.758v9.529c0 1.294 1.105 2.343 2.469 2.343h9.874c1.363 0 2.468-1.05 2.468-2.343 0-1.294-1.105-2.344-2.468-2.344z"/>
        <path fill="url(#paint2_linear)" d="M12.662 74.943H5.256v-7.185c0-1.294-1.105-2.343-2.468-2.343S.319 66.464.319 67.758v9.529c0 1.294 1.105 2.343 2.469 2.343h9.874c1.363 0 2.468-1.05 2.468-2.343 0-1.294-1.105-2.344-2.468-2.344z"/>
        <path fill="#484848" d="M82.64 65.415c-1.362 0-2.468 1.049-2.468 2.343v7.185h-7.405c-1.363 0-2.468 1.05-2.468 2.344 0 1.294 1.105 2.343 2.468 2.343h9.874c1.363 0 2.468-1.05 2.468-2.343v-9.53c0-1.293-1.105-2.342-2.468-2.342z"/>
        <path fill="url(#paint3_linear)" d="M82.64 65.415c-1.362 0-2.468 1.049-2.468 2.343v7.185h-7.405c-1.363 0-2.468 1.05-2.468 2.344 0 1.294 1.105 2.343 2.468 2.343h9.874c1.363 0 2.468-1.05 2.468-2.343v-9.53c0-1.293-1.105-2.342-2.468-2.342z"/>
        <path fill="#484848" d="M78.338 19.222L43.958.316c-.765-.421-1.71-.421-2.474 0L7.09 19.222c-.758.417-1.231 1.194-1.231 2.026V58.75c0 .84.481 1.627 1.256 2.041l34.369 18.893c.37.204.81.316 1.237.316.446 0 .881-.12 1.238-.316l34.354-18.893.017-.01c.797-.545 1.226-1.003 1.238-2.003V21.262l.001-.014c0-.833-.473-1.61-1.231-2.026zm-38.085 54.37L13.285 58.76l20.79-11.317c1.183-.644 1.592-2.076.913-3.199-.678-1.122-2.186-1.51-3.369-.866L10.796 54.706V25.297l29.457 16.058v32.235zm2.468-36.294L13.281 21.24l29.44-16.19 29.44 16.19-29.44 16.057zm31.927 17.407L53.823 43.38c-1.183-.644-2.691-.256-3.37.866-.678 1.123-.269 2.555.914 3.199l20.79 11.316L45.19 73.591V41.356l29.459-16.058v29.408z"/>
        <path fill="url(#paint4_linear)" d="M78.338 19.222L43.958.316c-.765-.421-1.71-.421-2.474 0L7.09 19.222c-.758.417-1.231 1.194-1.231 2.026V58.75c0 .84.481 1.627 1.256 2.041l34.369 18.893c.37.204.81.316 1.237.316.446 0 .881-.12 1.238-.316l34.354-18.893.017-.01c.797-.545 1.226-1.003 1.238-2.003V21.262l.001-.014c0-.833-.473-1.61-1.231-2.026zm-38.085 54.37L13.285 58.76l20.79-11.317c1.183-.644 1.592-2.076.913-3.199-.678-1.122-2.186-1.51-3.369-.866L10.796 54.706V25.297l29.457 16.058v32.235zm2.468-36.294L13.281 21.24l29.44-16.19 29.44 16.19-29.44 16.057zm31.927 17.407L53.823 43.38c-1.183-.644-2.691-.256-3.37.866-.678 1.123-.269 2.555.914 3.199l20.79 11.316L45.19 73.591V41.356l29.459-16.058v29.408z"/>
    </g>
    <defs>
        <linearGradient id="paint0_linear" x1="7.725" x2="7.725" y1="0" y2="14.215" gradientUnits="userSpaceOnUse">
            <stop stop-color="#fff"/>
            <stop offset="1" stop-color="#fff" stop-opacity="0"/>
        </linearGradient>
        <linearGradient id="paint1_linear" x1="77.704" x2="77.704" y1="0" y2="14.215" gradientUnits="userSpaceOnUse">
            <stop stop-color="#fff"/>
            <stop offset="1" stop-color="#fff" stop-opacity="0"/>
        </linearGradient>
        <linearGradient id="paint2_linear" x1="7.725" x2="7.725" y1="65.415" y2="79.63" gradientUnits="userSpaceOnUse">
            <stop stop-color="#fff"/>
            <stop offset="1" stop-color="#fff" stop-opacity="0"/>
        </linearGradient>
        <linearGradient id="paint3_linear" x1="77.704" x2="77.704" y1="65.415" y2="79.63" gradientUnits="userSpaceOnUse">
            <stop stop-color="#fff"/>
            <stop offset="1" stop-color="#fff" stop-opacity="0"/>
        </linearGradient>
        <linearGradient id="paint4_linear" x1="42.714" x2="42.714" y1="0" y2="80" gradientUnits="userSpaceOnUse">
            <stop stop-color="#fff"/>
            <stop offset="1" stop-color="#fff" stop-opacity="0"/>
        </linearGradient>
        <clipPath id="clip0">
            <path fill="#fff" d="M0 0H84.281V80H0z" transform="translate(0.580688)"/>
        </clipPath>
    </defs>
</svg>
