<svg xmlns="http://www.w3.org/2000/svg" width="84" height="80" fill="none" viewBox="0 0 84 80">
    <g clip-path="url(#clip0)">
        <path fill="#484848" d="M62.621 42.358c-1.441-1.045-3.5-.78-4.598.593-1.816 2.271-3.961 4.188-6.036 6.042-3.196 2.857-6.254 5.591-7.462 9.132H29.48c-1.208-3.54-4.266-6.275-7.462-9.132-5.178-4.628-10.533-9.415-10.533-18.795 0-6.355 2.64-12.351 7.433-16.883 4.824-4.56 11.194-7.065 17.956-7.065h.218c1.8 0 3.267-1.383 3.28-3.101C40.386 1.423 38.927.013 37.115 0c-8.587-.06-16.7 3.093-22.821 8.879-6.043 5.713-9.372 13.284-9.372 21.318 0 12.087 7.285 18.598 12.605 23.352 3.68 3.289 5.934 5.428 5.934 7.856v9.219c0 5.17 4.416 9.375 9.844 9.375h7.383c5.428 0 9.843-4.205 9.843-9.375v-8.98c.007-.079.013-.158.013-.239 0-2.428 2.255-4.567 5.934-7.856 2.164-1.934 4.618-4.127 6.765-6.812 1.098-1.373.82-3.334-.622-4.38zM40.687 73.75h-7.382c-1.81 0-3.282-1.402-3.282-3.125v-6.25H43.97v6.25c0 1.723-1.472 3.125-3.282 3.125zm-7.555-54.816c-5.195 1.54-8.686 6.05-8.686 11.222 0 1.726-1.469 3.125-3.281 3.125-1.813 0-3.281-1.399-3.281-3.125 0-7.923 5.344-14.83 13.297-17.19 1.73-.512 3.57.408 4.108 2.056.539 1.648-.427 3.4-2.157 3.912zm44.584 1.359l-3.158-2.167c.006-.157.01-.314.01-.47 0-.189-.007-.379-.016-.568l-.01-.186-.01-.177 3.257-2.37c1.283-.933 1.663-2.617.894-3.97l-1.476-2.6c-.772-1.36-2.473-1.978-4-1.453l-3.88 1.333c-.487-.35-1-.662-1.533-.943l-.145-.077c-.133-.067-.267-.132-.401-.195-.073-.035-.145-.068-.218-.101-.061-.028-.122-.059-.184-.086l-.698-3.692C65.867 1.083 64.507 0 62.918 0h-3.117c-1.636 0-3.022 1.148-3.249 2.692l-.525 3.574c-.967.417-1.875.944-2.71 1.57L49.51 6.706c-1.533-.456-3.188.212-3.91 1.58l-1.445 2.74c-.738 1.396-.277 3.098 1.078 3.981l3.1 2.022c-.01.208-.016.418-.016.628 0 .191.006.382.015.573l.012.19c.004.067.007.134.012.2l-3.143 2.372c-1.288.973-1.623 2.702-.783 4.047l1.538 2.463c.804 1.286 2.452 1.85 3.93 1.343l3.606-1.234c.786.57 1.636 1.052 2.534 1.439l.698 3.692c.282 1.488 1.641 2.572 3.23 2.572h2.953c1.612 0 2.985-1.116 3.24-2.632l.604-3.595c1.097-.463 2.12-1.067 3.047-1.8l3.73 1.051c1.522.43 3.149-.242 3.862-1.593l1.327-2.512c.723-1.372.294-3.042-1.013-3.94zM54.89 17.31l.004-.043c.007-.104.016-.208.029-.311 0-.01.001-.019.003-.028.013-.11.03-.218.05-.328l.003-.019c.02-.108.043-.216.068-.323.275-1.139.877-2.16 1.706-2.968l.068-.066c.066-.062.132-.123.2-.182l.048-.04c.136-.116.277-.228.424-.333.012-.01.024-.018.036-.026.08-.058.163-.114.247-.167v-.001c.162-.104.329-.2.5-.291l.06-.032c.082-.042.166-.083.25-.121l.083-.038c.133-.059.269-.113.406-.164.056-.021.112-.042.17-.06.065-.023.13-.044.197-.064.09-.028.183-.054.276-.078.55-.143 1.127-.22 1.724-.22.609 0 1.197.08 1.757.229.093.024.184.05.276.08.052.015.104.031.156.05.081.027.161.056.241.086.07.027.14.055.207.083.083.035.164.07.245.108.056.026.112.054.167.081.064.032.128.066.192.101l.152.083c.1.058.199.119.295.182l.134.09c.068.047.135.095.2.143l.12.09c.097.075.192.153.284.234.028.023.054.048.08.072.076.068.149.137.22.208.796.787 1.377 1.772 1.654 2.868.022.09.043.18.061.27.008.035.014.07.02.106.016.085.03.17.042.254l.015.11c.01.088.018.175.025.263l.008.1c.007.119.011.239.011.359 0 .215-.011.432-.034.647l-.004.027c-.01.097-.024.193-.04.289-.005.036-.013.072-.02.108-.012.067-.024.134-.038.2-.234 1.076-.76 2.05-1.495 2.846-.095.103-.192.204-.293.3l-.068.062c-.079.073-.16.144-.242.213l-.132.109c-.091.073-.185.143-.28.21-.058.042-.118.082-.178.121-.053.035-.106.07-.16.103-.096.06-.195.118-.295.172-.061.035-.123.069-.186.1-.065.034-.132.067-.198.098-.073.034-.146.067-.22.098-.076.033-.153.064-.23.093-.096.037-.192.072-.289.104l-.14.045c-.133.041-.27.08-.407.113-.516.125-1.056.191-1.612.191-.612 0-1.202-.081-1.763-.23-.091-.024-.181-.05-.27-.078l-.164-.052c-.077-.027-.154-.055-.23-.085-.087-.033-.172-.067-.256-.103-.067-.029-.133-.057-.2-.088l-.186-.091-.163-.086c-.09-.05-.18-.1-.268-.154-.064-.037-.127-.076-.188-.116-.057-.037-.113-.075-.168-.113l-.162-.117-.149-.11c-.09-.072-.177-.144-.263-.22-.042-.036-.083-.074-.124-.112-.06-.055-.117-.11-.175-.167-.798-.79-1.38-1.78-1.655-2.883-.021-.084-.041-.168-.058-.253l-.021-.112c-.015-.082-.029-.166-.04-.248l-.016-.113c-.01-.087-.017-.173-.025-.26l-.008-.1c-.007-.119-.01-.24-.01-.359-.002-.115.002-.23.01-.346zM27.07 37.031c1.813 0 3.282 1.4 3.282 3.125 0 1.726-1.47 3.125-3.282 3.125-1.811 0-3.28-1.399-3.28-3.125s1.469-3.125 3.28-3.125z"/>
        <path fill="url(#paint0_linear)" d="M62.621 42.358c-1.441-1.045-3.5-.78-4.598.593-1.816 2.271-3.961 4.188-6.036 6.042-3.196 2.857-6.254 5.591-7.462 9.132H29.48c-1.208-3.54-4.266-6.275-7.462-9.132-5.178-4.628-10.533-9.415-10.533-18.795 0-6.355 2.64-12.351 7.433-16.883 4.824-4.56 11.194-7.065 17.956-7.065h.218c1.8 0 3.267-1.383 3.28-3.101C40.386 1.423 38.927.013 37.115 0c-8.587-.06-16.7 3.093-22.821 8.879-6.043 5.713-9.372 13.284-9.372 21.318 0 12.087 7.285 18.598 12.605 23.352 3.68 3.289 5.934 5.428 5.934 7.856v9.219c0 5.17 4.416 9.375 9.844 9.375h7.383c5.428 0 9.843-4.205 9.843-9.375v-8.98c.007-.079.013-.158.013-.239 0-2.428 2.255-4.567 5.934-7.856 2.164-1.934 4.618-4.127 6.765-6.812 1.098-1.373.82-3.334-.622-4.38zM40.687 73.75h-7.382c-1.81 0-3.282-1.402-3.282-3.125v-6.25H43.97v6.25c0 1.723-1.472 3.125-3.282 3.125zm-7.555-54.816c-5.195 1.54-8.686 6.05-8.686 11.222 0 1.726-1.469 3.125-3.281 3.125-1.813 0-3.281-1.399-3.281-3.125 0-7.923 5.344-14.83 13.297-17.19 1.73-.512 3.57.408 4.108 2.056.539 1.648-.427 3.4-2.157 3.912zm44.584 1.359l-3.158-2.167c.006-.157.01-.314.01-.47 0-.189-.007-.379-.016-.568l-.01-.186-.01-.177 3.257-2.37c1.283-.933 1.663-2.617.894-3.97l-1.476-2.6c-.772-1.36-2.473-1.978-4-1.453l-3.88 1.333c-.487-.35-1-.662-1.533-.943l-.145-.077c-.133-.067-.267-.132-.401-.195-.073-.035-.145-.068-.218-.101-.061-.028-.122-.059-.184-.086l-.698-3.692C65.867 1.083 64.507 0 62.918 0h-3.117c-1.636 0-3.022 1.148-3.249 2.692l-.525 3.574c-.967.417-1.875.944-2.71 1.57L49.51 6.706c-1.533-.456-3.188.212-3.91 1.58l-1.445 2.74c-.738 1.396-.277 3.098 1.078 3.981l3.1 2.022c-.01.208-.016.418-.016.628 0 .191.006.382.015.573l.012.19c.004.067.007.134.012.2l-3.143 2.372c-1.288.973-1.623 2.702-.783 4.047l1.538 2.463c.804 1.286 2.452 1.85 3.93 1.343l3.606-1.234c.786.57 1.636 1.052 2.534 1.439l.698 3.692c.282 1.488 1.641 2.572 3.23 2.572h2.953c1.612 0 2.985-1.116 3.24-2.632l.604-3.595c1.097-.463 2.12-1.067 3.047-1.8l3.73 1.051c1.522.43 3.149-.242 3.862-1.593l1.327-2.512c.723-1.372.294-3.042-1.013-3.94zM54.89 17.31l.004-.043c.007-.104.016-.208.029-.311 0-.01.001-.019.003-.028.013-.11.03-.218.05-.328l.003-.019c.02-.108.043-.216.068-.323.275-1.139.877-2.16 1.706-2.968l.068-.066c.066-.062.132-.123.2-.182l.048-.04c.136-.116.277-.228.424-.333.012-.01.024-.018.036-.026.08-.058.163-.114.247-.167v-.001c.162-.104.329-.2.5-.291l.06-.032c.082-.042.166-.083.25-.121l.083-.038c.133-.059.269-.113.406-.164.056-.021.112-.042.17-.06.065-.023.13-.044.197-.064.09-.028.183-.054.276-.078.55-.143 1.127-.22 1.724-.22.609 0 1.197.08 1.757.229.093.024.184.05.276.08.052.015.104.031.156.05.081.027.161.056.241.086.07.027.14.055.207.083.083.035.164.07.245.108.056.026.112.054.167.081.064.032.128.066.192.101l.152.083c.1.058.199.119.295.182l.134.09c.068.047.135.095.2.143l.12.09c.097.075.192.153.284.234.028.023.054.048.08.072.076.068.149.137.22.208.796.787 1.377 1.772 1.654 2.868.022.09.043.18.061.27.008.035.014.07.02.106.016.085.03.17.042.254l.015.11c.01.088.018.175.025.263l.008.1c.007.119.011.239.011.359 0 .215-.011.432-.034.647l-.004.027c-.01.097-.024.193-.04.289-.005.036-.013.072-.02.108-.012.067-.024.134-.038.2-.234 1.076-.76 2.05-1.495 2.846-.095.103-.192.204-.293.3l-.068.062c-.079.073-.16.144-.242.213l-.132.109c-.091.073-.185.143-.28.21-.058.042-.118.082-.178.121-.053.035-.106.07-.16.103-.096.06-.195.118-.295.172-.061.035-.123.069-.186.1-.065.034-.132.067-.198.098-.073.034-.146.067-.22.098-.076.033-.153.064-.23.093-.096.037-.192.072-.289.104l-.14.045c-.133.041-.27.08-.407.113-.516.125-1.056.191-1.612.191-.612 0-1.202-.081-1.763-.23-.091-.024-.181-.05-.27-.078l-.164-.052c-.077-.027-.154-.055-.23-.085-.087-.033-.172-.067-.256-.103-.067-.029-.133-.057-.2-.088l-.186-.091-.163-.086c-.09-.05-.18-.1-.268-.154-.064-.037-.127-.076-.188-.116-.057-.037-.113-.075-.168-.113l-.162-.117-.149-.11c-.09-.072-.177-.144-.263-.22-.042-.036-.083-.074-.124-.112-.06-.055-.117-.11-.175-.167-.798-.79-1.38-1.78-1.655-2.883-.021-.084-.041-.168-.058-.253l-.021-.112c-.015-.082-.029-.166-.04-.248l-.016-.113c-.01-.087-.017-.173-.025-.26l-.008-.1c-.007-.119-.01-.24-.01-.359-.002-.115.002-.23.01-.346zM27.07 37.031c1.813 0 3.282 1.4 3.282 3.125 0 1.726-1.47 3.125-3.282 3.125-1.811 0-3.28-1.399-3.28-3.125s1.469-3.125 3.28-3.125z"/>
    </g>
    <defs>
        <linearGradient id="paint0_linear" x1="42" x2="42" y1="0" y2="80" gradientUnits="userSpaceOnUse">
            <stop stop-color="#fff"/>
            <stop offset="1" stop-color="#fff" stop-opacity="0"/>
        </linearGradient>
        <clipPath id="clip0">
            <path fill="#fff" d="M0 0H84V80H0z"/>
        </clipPath>
    </defs>
</svg>
