<svg xmlns="http://www.w3.org/2000/svg" width="90" height="80" fill="none" viewBox="0 0 90 80">
    <path fill="#484848" d="M86.898 0H3.379C1.944 0 .78 1.05.78 2.344v75c0 1.294 1.164 2.344 2.6 2.344h83.518c1.435 0 2.599-1.05 2.599-2.344v-75c0-1.295-1.164-2.344-2.6-2.344zM5.978 62.5v-7.813h6.931V62.5H5.98zm40.72-45.313V25h-28.59v-7.813h28.59zM32.058 50h-13.95v-7.813h28.59v7.282c-1.966-1.239-4.355-1.969-6.931-1.969-2.925 0-5.613.939-7.71 2.5zm19.838-18.462L62.64 37.5H51.896v-5.962zm17.328 4.111l-17.328-9.615v-6.996l17.328 9.615v6.996zM46.698 37.5h-28.59v-7.813h28.59V37.5zm-33.788 0H5.979v-7.813h6.93V37.5zm0 4.688V50H5.978v-7.813h6.93zm38.986 0H84.3V50H51.896v-7.813zM74.422 37.5v-7.813h9.877V37.5h-9.877zM72.558 25L58.48 17.187h25.819V25h-11.74zM12.91 25H5.98v-7.813h6.93V25zm5.199 29.688h10.264c-.475 1.17-.734 2.433-.734 3.75 0 1.435.311 2.805.87 4.062h-10.4v-7.813zm14.728 3.75c0-3.447 3.11-6.25 6.931-6.25 3.822 0 6.931 2.803 6.931 6.25 0 3.446-3.11 6.25-6.931 6.25-3.822 0-6.93-2.804-6.93-6.25zm19.06 0v-3.75H84.3V62.5H51.025c.56-1.257.871-2.627.871-4.063zM84.3 4.688V12.5H5.979V4.687h78.32zM5.979 75v-7.813h26.519c2.027 1.373 4.544 2.188 7.269 2.188 2.725 0 5.242-.815 7.27-2.188h37.262V75H5.979z"/>
    <path fill="url(#paint0_linear)" d="M86.898 0H3.379C1.944 0 .78 1.05.78 2.344v75c0 1.294 1.164 2.344 2.6 2.344h83.518c1.435 0 2.599-1.05 2.599-2.344v-75c0-1.295-1.164-2.344-2.6-2.344zM5.978 62.5v-7.813h6.931V62.5H5.98zm40.72-45.313V25h-28.59v-7.813h28.59zM32.058 50h-13.95v-7.813h28.59v7.282c-1.966-1.239-4.355-1.969-6.931-1.969-2.925 0-5.613.939-7.71 2.5zm19.838-18.462L62.64 37.5H51.896v-5.962zm17.328 4.111l-17.328-9.615v-6.996l17.328 9.615v6.996zM46.698 37.5h-28.59v-7.813h28.59V37.5zm-33.788 0H5.979v-7.813h6.93V37.5zm0 4.688V50H5.978v-7.813h6.93zm38.986 0H84.3V50H51.896v-7.813zM74.422 37.5v-7.813h9.877V37.5h-9.877zM72.558 25L58.48 17.187h25.819V25h-11.74zM12.91 25H5.98v-7.813h6.93V25zm5.199 29.688h10.264c-.475 1.17-.734 2.433-.734 3.75 0 1.435.311 2.805.87 4.062h-10.4v-7.813zm14.728 3.75c0-3.447 3.11-6.25 6.931-6.25 3.822 0 6.931 2.803 6.931 6.25 0 3.446-3.11 6.25-6.931 6.25-3.822 0-6.93-2.804-6.93-6.25zm19.06 0v-3.75H84.3V62.5H51.025c.56-1.257.871-2.627.871-4.063zM84.3 4.688V12.5H5.979V4.687h78.32zM5.979 75v-7.813h26.519c2.027 1.373 4.544 2.188 7.269 2.188 2.725 0 5.242-.815 7.27-2.188h37.262V75H5.979z"/>
    <defs>
        <linearGradient id="paint0_linear" x1="45.139" x2="45.139" y1="0" y2="79.688" gradientUnits="userSpaceOnUse">
            <stop stop-color="#fff"/>
            <stop offset="1" stop-color="#fff" stop-opacity="0"/>
        </linearGradient>
    </defs>
</svg>
