<svg xmlns="http://www.w3.org/2000/svg" width="68" height="80" fill="none" viewBox="0 0 68 80">
    <path fill="#484848" d="M67.958 7.739c0-4.267-3.87-7.739-8.63-7.739H8.63C3.87 0 0 3.472 0 7.739v64.492c0 4.267 3.871 7.739 8.63 7.739 41.714 0 39.488.222 40.588-.54.28-.194 17.929-16.036 18.066-16.182.967-1.033.674 1.723.674-55.509zM5.753 72.231V7.739c0-1.422 1.29-2.58 2.877-2.58h50.699c1.586 0 2.876 1.158 2.876 2.58v51.27H47.463c-1.589 0-2.877 1.156-2.877 2.58V74.81H8.63c-1.586 0-2.877-1.157-2.877-2.58zm44.587-1.069V64.17h7.797l-7.797 6.993zM33.98 19.025c0-1.425 1.287-2.58 2.876-2.58h17.259c1.589 0 2.877 1.155 2.877 2.58s-1.288 2.58-2.877 2.58h-17.26c-1.588 0-2.876-1.155-2.876-2.58zm-7.855-5.532c1.123 1.007 1.123 2.64 0 3.648l-7.64 6.852c-1.124 1.008-2.945 1.008-4.069 0l-2.607-2.338c-1.123-1.007-1.123-2.64 0-3.648 1.124-1.007 2.945-1.007 4.068 0l.573.514 5.607-5.028c1.123-1.008 2.945-1.008 4.068 0zm7.854 26.492c0-1.425 1.288-2.58 2.877-2.58h17.259c1.589 0 2.877 1.155 2.877 2.58s-1.288 2.58-2.877 2.58h-17.26c-1.588 0-2.876-1.155-2.876-2.58zm-7.854-5.533c1.123 1.008 1.123 2.641 0 3.649l-7.64 6.852c-1.124 1.007-2.945 1.007-4.069 0l-2.607-2.338c-1.123-1.007-1.123-2.64 0-3.648 1.124-1.008 2.945-1.008 4.068 0l.573.514 5.607-5.029c1.123-1.007 2.945-1.007 4.068 0zM41.17 60.945c0 1.424-1.287 2.58-2.876 2.58h-1.438c-1.589 0-2.877-1.156-2.877-2.58 0-1.425 1.288-2.58 2.877-2.58h1.438c1.589 0 2.877 1.155 2.877 2.58zm-15.045-5.533c1.123 1.008 1.123 2.641 0 3.648l-7.64 6.853c-1.124 1.007-2.945 1.007-4.069 0l-2.607-2.338c-1.123-1.008-1.123-2.64 0-3.648 1.124-1.008 2.945-1.008 4.068 0l.573.514 5.607-5.029c1.123-1.007 2.945-1.007 4.068 0z"/>
    <path fill="url(#paint0_linear)" d="M67.958 7.739c0-4.267-3.87-7.739-8.63-7.739H8.63C3.87 0 0 3.472 0 7.739v64.492c0 4.267 3.871 7.739 8.63 7.739 41.714 0 39.488.222 40.588-.54.28-.194 17.929-16.036 18.066-16.182.967-1.033.674 1.723.674-55.509zM5.753 72.231V7.739c0-1.422 1.29-2.58 2.877-2.58h50.699c1.586 0 2.876 1.158 2.876 2.58v51.27H47.463c-1.589 0-2.877 1.156-2.877 2.58V74.81H8.63c-1.586 0-2.877-1.157-2.877-2.58zm44.587-1.069V64.17h7.797l-7.797 6.993zM33.98 19.025c0-1.425 1.287-2.58 2.876-2.58h17.259c1.589 0 2.877 1.155 2.877 2.58s-1.288 2.58-2.877 2.58h-17.26c-1.588 0-2.876-1.155-2.876-2.58zm-7.855-5.532c1.123 1.007 1.123 2.64 0 3.648l-7.64 6.852c-1.124 1.008-2.945 1.008-4.069 0l-2.607-2.338c-1.123-1.007-1.123-2.64 0-3.648 1.124-1.007 2.945-1.007 4.068 0l.573.514 5.607-5.028c1.123-1.008 2.945-1.008 4.068 0zm7.854 26.492c0-1.425 1.288-2.58 2.877-2.58h17.259c1.589 0 2.877 1.155 2.877 2.58s-1.288 2.58-2.877 2.58h-17.26c-1.588 0-2.876-1.155-2.876-2.58zm-7.854-5.533c1.123 1.008 1.123 2.641 0 3.649l-7.64 6.852c-1.124 1.007-2.945 1.007-4.069 0l-2.607-2.338c-1.123-1.007-1.123-2.64 0-3.648 1.124-1.008 2.945-1.008 4.068 0l.573.514 5.607-5.029c1.123-1.007 2.945-1.007 4.068 0zM41.17 60.945c0 1.424-1.287 2.58-2.876 2.58h-1.438c-1.589 0-2.877-1.156-2.877-2.58 0-1.425 1.288-2.58 2.877-2.58h1.438c1.589 0 2.877 1.155 2.877 2.58zm-15.045-5.533c1.123 1.008 1.123 2.641 0 3.648l-7.64 6.853c-1.124 1.007-2.945 1.007-4.069 0l-2.607-2.338c-1.123-1.008-1.123-2.64 0-3.648 1.124-1.008 2.945-1.008 4.068 0l.573.514 5.607-5.029c1.123-1.007 2.945-1.007 4.068 0z"/>
    <defs>
        <linearGradient id="paint0_linear" x1="34" x2="34" y1="0" y2="80" gradientUnits="userSpaceOnUse">
            <stop stop-color="#fff"/>
            <stop offset="1" stop-color="#fff" stop-opacity="0"/>
        </linearGradient>
    </defs>
</svg>
