<svg xmlns="http://www.w3.org/2000/svg" width="97" height="76" fill="none" viewBox="0 0 97 76">
    <path fill="#484848" d="M94.724 33.974c-.819-.46-1.843-.506-2.71-.122l-18.697 8.293v-2.672c0-3.939-2.749-7.307-6.606-8.634 4.049-3.234 6.606-7.953 6.606-13.202C73.317 7.912 64.543 0 53.758 0 46.652 0 40.42 3.436 36.994 8.562 33.569 3.436 27.336 0 20.23 0 9.445 0 .67 7.912.67 17.637c0 5.249 2.557 9.968 6.605 13.202C3.42 32.166.671 35.534.671 39.473v26.875c0 5.094 4.596 9.238 10.245 9.238h52.156c5.649 0 10.245-4.144 10.245-9.238v-2.672l18.697 8.292c.39.173.812.259 1.233.259.514 0 1.027-.128 1.477-.381.82-.46 1.317-1.269 1.317-2.139V36.113c0-.87-.498-1.679-1.317-2.139zM53.758 5.04c7.703 0 13.97 5.651 13.97 12.598 0 6.946-6.267 12.597-13.97 12.597s-13.97-5.65-13.97-12.597c0-6.947 6.267-12.598 13.97-12.598zM40.085 30.234h-6.182c1.187-1.048 2.228-2.231 3.09-3.522.863 1.29 1.904 2.474 3.092 3.522zM6.26 17.637c0-6.947 6.267-12.598 13.97-12.598 7.704 0 13.97 5.651 13.97 12.598 0 6.946-6.266 12.597-13.97 12.597-7.703 0-13.97-5.65-13.97-12.597zm61.47 48.71c0 2.316-2.09 4.2-4.657 4.2H10.916c-2.568 0-4.657-1.884-4.657-4.2V39.474c0-2.316 2.09-4.2 4.657-4.2h52.156c2.567 0 4.656 1.884 4.656 4.2v26.875zm22.724-.687l-17.136-7.6v-10.3l17.136-7.6v25.5z"/>
    <path fill="url(#paint0_linear)" d="M94.724 33.974c-.819-.46-1.843-.506-2.71-.122l-18.697 8.293v-2.672c0-3.939-2.749-7.307-6.606-8.634 4.049-3.234 6.606-7.953 6.606-13.202C73.317 7.912 64.543 0 53.758 0 46.652 0 40.42 3.436 36.994 8.562 33.569 3.436 27.336 0 20.23 0 9.445 0 .67 7.912.67 17.637c0 5.249 2.557 9.968 6.605 13.202C3.42 32.166.671 35.534.671 39.473v26.875c0 5.094 4.596 9.238 10.245 9.238h52.156c5.649 0 10.245-4.144 10.245-9.238v-2.672l18.697 8.292c.39.173.812.259 1.233.259.514 0 1.027-.128 1.477-.381.82-.46 1.317-1.269 1.317-2.139V36.113c0-.87-.498-1.679-1.317-2.139zM53.758 5.04c7.703 0 13.97 5.651 13.97 12.598 0 6.946-6.267 12.597-13.97 12.597s-13.97-5.65-13.97-12.597c0-6.947 6.267-12.598 13.97-12.598zM40.085 30.234h-6.182c1.187-1.048 2.228-2.231 3.09-3.522.863 1.29 1.904 2.474 3.092 3.522zM6.26 17.637c0-6.947 6.267-12.598 13.97-12.598 7.704 0 13.97 5.651 13.97 12.598 0 6.946-6.266 12.597-13.97 12.597-7.703 0-13.97-5.65-13.97-12.597zm61.47 48.71c0 2.316-2.09 4.2-4.657 4.2H10.916c-2.568 0-4.657-1.884-4.657-4.2V39.474c0-2.316 2.09-4.2 4.657-4.2h52.156c2.567 0 4.656 1.884 4.656 4.2v26.875zm22.724-.687l-17.136-7.6v-10.3l17.136-7.6v25.5z"/>
    <path fill="#484848" d="M20.23 25.195c4.622 0 8.382-3.39 8.382-7.558 0-4.168-3.76-7.559-8.382-7.559s-8.383 3.39-8.383 7.559c0 4.168 3.76 7.558 8.383 7.558zm0-10.078c1.54 0 2.794 1.13 2.794 2.52 0 1.389-1.254 2.52-2.794 2.52-1.541 0-2.794-1.131-2.794-2.52 0-1.39 1.253-2.52 2.794-2.52z"/>
    <path fill="url(#paint1_linear)" d="M20.23 25.195c4.622 0 8.382-3.39 8.382-7.558 0-4.168-3.76-7.559-8.382-7.559s-8.383 3.39-8.383 7.559c0 4.168 3.76 7.558 8.383 7.558zm0-10.078c1.54 0 2.794 1.13 2.794 2.52 0 1.389-1.254 2.52-2.794 2.52-1.541 0-2.794-1.131-2.794-2.52 0-1.39 1.253-2.52 2.794-2.52z"/>
    <path fill="#484848" d="M53.758 25.195c4.622 0 8.382-3.39 8.382-7.558 0-4.168-3.76-7.559-8.382-7.559s-8.382 3.39-8.382 7.559c0 4.168 3.76 7.558 8.382 7.558zm0-10.078c1.54 0 2.794 1.13 2.794 2.52 0 1.389-1.253 2.52-2.794 2.52-1.54 0-2.794-1.131-2.794-2.52 0-1.39 1.254-2.52 2.794-2.52z"/>
    <path fill="url(#paint2_linear)" d="M53.758 25.195c4.622 0 8.382-3.39 8.382-7.558 0-4.168-3.76-7.559-8.382-7.559s-8.382 3.39-8.382 7.559c0 4.168 3.76 7.558 8.382 7.558zm0-10.078c1.54 0 2.794 1.13 2.794 2.52 0 1.389-1.253 2.52-2.794 2.52-1.54 0-2.794-1.131-2.794-2.52 0-1.39 1.254-2.52 2.794-2.52z"/>
    <path fill="#484848" d="M59.346 40.313h-20.49c-1.542 0-2.793 1.128-2.793 2.519v15.117c0 1.392 1.25 2.52 2.794 2.52h20.49c1.542 0 2.793-1.128 2.793-2.52V42.832c0-1.391-1.25-2.52-2.794-2.52zM56.552 55.43H41.651V45.352h14.901V55.43z"/>
    <path fill="url(#paint3_linear)" d="M59.346 40.313h-20.49c-1.542 0-2.793 1.128-2.793 2.519v15.117c0 1.392 1.25 2.52 2.794 2.52h20.49c1.542 0 2.793-1.128 2.793-2.52V42.832c0-1.391-1.25-2.52-2.794-2.52zM56.552 55.43H41.651V45.352h14.901V55.43z"/>
    <path fill="#484848" d="M27.68 60.469H14.642c-1.543 0-2.794 1.128-2.794 2.52 0 1.39 1.25 2.519 2.793 2.519h13.04c1.543 0 2.793-1.128 2.793-2.52 0-1.391-1.25-2.52-2.794-2.52z"/>
    <path fill="url(#paint4_linear)" d="M27.68 60.469H14.642c-1.543 0-2.794 1.128-2.794 2.52 0 1.39 1.25 2.519 2.793 2.519h13.04c1.543 0 2.793-1.128 2.793-2.52 0-1.391-1.25-2.52-2.794-2.52z"/>
    <path fill="#484848" d="M27.68 50.39H14.642c-1.543 0-2.794 1.129-2.794 2.52 0 1.392 1.25 2.52 2.793 2.52h13.04c1.543 0 2.793-1.128 2.793-2.52 0-1.391-1.25-2.52-2.794-2.52z"/>
    <path fill="url(#paint5_linear)" d="M27.68 50.39H14.642c-1.543 0-2.794 1.129-2.794 2.52 0 1.392 1.25 2.52 2.793 2.52h13.04c1.543 0 2.793-1.128 2.793-2.52 0-1.391-1.25-2.52-2.794-2.52z"/>
    <defs>
        <linearGradient id="paint0_linear" x1="48.356" x2="48.356" y1="0" y2="75.586" gradientUnits="userSpaceOnUse">
            <stop stop-color="#fff"/>
            <stop offset="1" stop-color="#fff" stop-opacity="0"/>
        </linearGradient>
        <linearGradient id="paint1_linear" x1="20.23" x2="20.23" y1="10.078" y2="25.195" gradientUnits="userSpaceOnUse">
            <stop stop-color="#fff"/>
            <stop offset="1" stop-color="#fff" stop-opacity="0"/>
        </linearGradient>
        <linearGradient id="paint2_linear" x1="53.758" x2="53.758" y1="10.078" y2="25.195" gradientUnits="userSpaceOnUse">
            <stop stop-color="#fff"/>
            <stop offset="1" stop-color="#fff" stop-opacity="0"/>
        </linearGradient>
        <linearGradient id="paint3_linear" x1="49.102" x2="49.102" y1="40.313" y2="60.469" gradientUnits="userSpaceOnUse">
            <stop stop-color="#fff"/>
            <stop offset="1" stop-color="#fff" stop-opacity="0"/>
        </linearGradient>
        <linearGradient id="paint4_linear" x1="21.161" x2="21.161" y1="60.469" y2="65.508" gradientUnits="userSpaceOnUse">
            <stop stop-color="#fff"/>
            <stop offset="1" stop-color="#fff" stop-opacity="0"/>
        </linearGradient>
        <linearGradient id="paint5_linear" x1="21.161" x2="21.161" y1="50.391" y2="55.43" gradientUnits="userSpaceOnUse">
            <stop stop-color="#fff"/>
            <stop offset="1" stop-color="#fff" stop-opacity="0"/>
        </linearGradient>
    </defs>
</svg>
