<svg xmlns="http://www.w3.org/2000/svg" width="89" height="80" fill="none" viewBox="0 0 89 80">
    <g clip-path="url(#clip0)">
        <path fill="#484848" d="M64.986 48.171c-.251-.753-1.285-1.105-2.346-1.105-1.034 0-2.067.352-2.318 1.105L54.93 63.962c-.028.101-.056.201-.056.251 0 .804 1.313 1.356 2.29 1.356.615 0 1.09-.175 1.23-.653l1.06-3.339h6.397l1.062 3.34c.139.477.614.652 1.228.652.978 0 2.29-.577 2.29-1.356 0-.075-.028-.15-.055-.25L64.986 48.17zM60.21 59.016l2.43-7.707 2.43 7.707h-4.86z"/>
        <path fill="url(#paint0_linear)" d="M64.986 48.171c-.251-.753-1.285-1.105-2.346-1.105-1.034 0-2.067.352-2.318 1.105L54.93 63.962c-.028.101-.056.201-.056.251 0 .804 1.313 1.356 2.29 1.356.615 0 1.09-.175 1.23-.653l1.06-3.339h6.397l1.062 3.34c.139.477.614.652 1.228.652.978 0 2.29-.577 2.29-1.356 0-.075-.028-.15-.055-.25L64.986 48.17zM60.21 59.016l2.43-7.707 2.43 7.707h-4.86z"/>
        <path fill="#484848" d="M79.41 32.636H52.693V22.378l8.684-5.575c.685-.44 1.091-1.15 1.091-1.907 0-.757-.406-1.467-1.091-1.907l-8.788-5.642C51.9 3.195 47.909 0 43.103 0H9.59C4.302 0 0 3.867 0 8.62v30.125c0 4.753 4.302 8.62 9.59 8.62h26.718v10.257l-8.684 5.575c-.685.44-1.091 1.15-1.091 1.907 0 .757.406 1.468 1.091 1.907l8.788 5.642C37.1 76.805 41.091 80 45.897 80H79.41C84.698 80 89 76.133 89 71.38V41.256c0-4.754-4.302-8.62-9.59-8.62zM9.59 42.677c-2.413 0-4.375-1.764-4.375-3.932V8.619c0-2.168 1.962-3.931 4.375-3.931h33.513c2.412 0 4.374 1.763 4.374 3.931 0 .758.407 1.468 1.092 1.908l6.805 4.369-6.805 4.369c-.685.44-1.092 1.15-1.092 1.907v11.463h-1.58c-5.288 0-9.59 3.867-9.59 8.62v1.422H9.59zM83.785 71.38c0 2.169-1.962 3.933-4.374 3.933H45.897c-2.412 0-4.374-1.764-4.374-3.933 0-.757-.407-1.467-1.092-1.907l-6.805-4.369 6.805-4.368c.685-.44 1.092-1.151 1.092-1.908V41.255c0-2.168 1.962-3.932 4.374-3.932H79.41c2.412 0 4.374 1.764 4.374 3.932V71.38z"/>
        <path fill="url(#paint1_linear)" d="M79.41 32.636H52.693V22.378l8.684-5.575c.685-.44 1.091-1.15 1.091-1.907 0-.757-.406-1.467-1.091-1.907l-8.788-5.642C51.9 3.195 47.909 0 43.103 0H9.59C4.302 0 0 3.867 0 8.62v30.125c0 4.753 4.302 8.62 9.59 8.62h26.718v10.257l-8.684 5.575c-.685.44-1.091 1.15-1.091 1.907 0 .757.406 1.468 1.091 1.907l8.788 5.642C37.1 76.805 41.091 80 45.897 80H79.41C84.698 80 89 76.133 89 71.38V41.256c0-4.754-4.302-8.62-9.59-8.62zM9.59 42.677c-2.413 0-4.375-1.764-4.375-3.932V8.619c0-2.168 1.962-3.931 4.375-3.931h33.513c2.412 0 4.374 1.763 4.374 3.931 0 .758.407 1.468 1.092 1.908l6.805 4.369-6.805 4.369c-.685.44-1.092 1.15-1.092 1.907v11.463h-1.58c-5.288 0-9.59 3.867-9.59 8.62v1.422H9.59zM83.785 71.38c0 2.169-1.962 3.933-4.374 3.933H45.897c-2.412 0-4.374-1.764-4.374-3.933 0-.757-.407-1.467-1.092-1.907l-6.805-4.369 6.805-4.368c.685-.44 1.092-1.151 1.092-1.908V41.255c0-2.168 1.962-3.932 4.374-3.932H79.41c2.412 0 4.374 1.764 4.374 3.932V71.38z"/>
        <path fill="#9F9F9F" d="M34.358 21.606c.811 0 1.47-.592 1.47-1.322 0-.73-.659-1.322-1.47-1.322h-6.541v-3.21c0-.73-.66-1.321-1.471-1.321-.812 0-1.47.592-1.47 1.322v3.209h-6.541c-.812 0-1.47.592-1.47 1.322 0 .73.658 1.322 1.47 1.322h2.027c.324 2.791 1.663 5.314 3.677 7.267-1.67.899-3.62 1.418-5.704 1.418-.812 0-1.47.591-1.47 1.321s.658 1.322 1.47 1.322c2.975 0 5.735-.836 8.01-2.258 2.277 1.422 5.037 2.258 8.013 2.258.811 0 1.47-.592 1.47-1.322 0-.73-.659-1.321-1.47-1.321-2.084 0-4.034-.518-5.704-1.418 2.014-1.953 3.353-4.476 3.677-7.267h2.026zm-8.012 5.616c-1.609-1.501-2.701-3.45-3.021-5.616h6.042c-.32 2.166-1.412 4.115-3.021 5.616z"/>
        <path fill="url(#paint2_linear)" d="M34.358 21.606c.811 0 1.47-.592 1.47-1.322 0-.73-.659-1.322-1.47-1.322h-6.541v-3.21c0-.73-.66-1.321-1.471-1.321-.812 0-1.47.592-1.47 1.322v3.209h-6.541c-.812 0-1.47.592-1.47 1.322 0 .73.658 1.322 1.47 1.322h2.027c.324 2.791 1.663 5.314 3.677 7.267-1.67.899-3.62 1.418-5.704 1.418-.812 0-1.47.591-1.47 1.321s.658 1.322 1.47 1.322c2.975 0 5.735-.836 8.01-2.258 2.277 1.422 5.037 2.258 8.013 2.258.811 0 1.47-.592 1.47-1.322 0-.73-.659-1.321-1.47-1.321-2.084 0-4.034-.518-5.704-1.418 2.014-1.953 3.353-4.476 3.677-7.267h2.026zm-8.012 5.616c-1.609-1.501-2.701-3.45-3.021-5.616h6.042c-.32 2.166-1.412 4.115-3.021 5.616z"/>
    </g>
    <defs>
        <linearGradient id="paint0_linear" x1="62.654" x2="62.654" y1="47.066" y2="65.569" gradientUnits="userSpaceOnUse">
            <stop stop-color="#939191"/>
            <stop offset="1" stop-color="#fff" stop-opacity="0"/>
        </linearGradient>
        <linearGradient id="paint1_linear" x1="44.5" x2="44.5" y1="0" y2="80" gradientUnits="userSpaceOnUse">
            <stop stop-color="#fff"/>
            <stop offset="1" stop-color="#fff" stop-opacity="0"/>
        </linearGradient>
        <linearGradient id="paint2_linear" x1="26.346" x2="26.346" y1="14.431" y2="32.934" gradientUnits="userSpaceOnUse">
            <stop stop-color="#fff"/>
            <stop offset="1" stop-color="#fff" stop-opacity="0"/>
        </linearGradient>
        <clipPath id="clip0">
            <path fill="#fff" d="M0 0H89V80H0z"/>
        </clipPath>
    </defs>
</svg>
