<svg xmlns="http://www.w3.org/2000/svg" width="89" height="71" fill="none" viewBox="0 0 89 71">
    <path fill="#484848" d="M88.791 58.25c0-1.105-.895-2-2-2h-1.198c-1.105 0-2-.895-2-2V16.062c0-1.104.895-2 2-2h1.198c1.105 0 2-.895 2-2V2c0-1.105-.895-2-2-2H2.075c-1.105 0-2 .895-2 2v10.063c0 1.104.895 2 2 2h1.198c1.105 0 2 .895 2 2V54.25c0 1.105-.895 2-2 2H2.075c-1.105 0-2 .895-2 2v10.063c0 1.104.895 2 2 2H86.79c1.105 0 2-.896 2-2V58.25zM83.593 8.375c0 .552-.448 1-1 1h-6.837c-.552 0-1-.448-1-1V5.687c0-.552.448-1 1-1h6.837c.552 0 1 .448 1 1v2.688zm-63.285 1c-.552 0-1-.448-1-1V5.687c0-.552.448-1 1-1h6.664c.552 0 1 .448 1 1v2.688c0 .552-.448 1-1 1h-6.664zM33.17 5.687c0-.552.448-1 1-1h6.664c.552 0 1 .448 1 1v2.688c0 .552-.448 1-1 1H34.17c-.552 0-1-.448-1-1V5.687zm13.862 0c0-.552.448-1 1-1h6.664c.552 0 1 .448 1 1v2.688c0 .552-.448 1-1 1h-6.664c-.552 0-1-.448-1-1V5.687zm13.862 0c0-.552.448-1 1-1h6.664c.552 0 1 .448 1 1v2.688c0 .552-.448 1-1 1h-6.664c-.552 0-1-.448-1-1V5.687zm-55.621 0c0-.552.448-1 1-1h6.837c.552 0 1 .448 1 1v2.688c0 .552-.448 1-1 1H6.273c-.552 0-1-.448-1-1V5.687zm5.198 10.375c0-1.104.896-2 2-2h63.924c1.105 0 2 .896 2 2V54.25c0 1.105-.895 2-2 2H12.471c-1.104 0-2-.895-2-2V16.062zm16.5 44.876c.553 0 1 .447 1 1v2.687c0 .552-.447 1-1 1h-6.663c-.552 0-1-.448-1-1v-2.688c0-.552.448-1 1-1h6.664zm6.2 1c0-.553.447-1 1-1h6.663c.552 0 1 .447 1 1v2.687c0 .552-.448 1-1 1H34.17c-.552 0-1-.448-1-1v-2.688zm13.861 0c0-.553.448-1 1-1h6.664c.552 0 1 .447 1 1v2.687c0 .552-.448 1-1 1h-6.664c-.552 0-1-.448-1-1v-2.688zm13.862 0c0-.553.448-1 1-1h6.664c.552 0 1 .447 1 1v2.687c0 .552-.448 1-1 1h-6.664c-.552 0-1-.448-1-1v-2.688zm-55.621 0c0-.553.448-1 1-1h6.837c.552 0 1 .447 1 1v2.687c0 .552-.448 1-1 1H6.273c-.552 0-1-.448-1-1v-2.688zm78.32 2.687c0 .552-.448 1-1 1h-6.837c-.552 0-1-.448-1-1v-2.688c0-.552.448-1 1-1h6.837c.552 0 1 .448 1 1v2.688z"/>
    <path fill="url(#paint0_linear)" d="M88.791 58.25c0-1.105-.895-2-2-2h-1.198c-1.105 0-2-.895-2-2V16.062c0-1.104.895-2 2-2h1.198c1.105 0 2-.895 2-2V2c0-1.105-.895-2-2-2H2.075c-1.105 0-2 .895-2 2v10.063c0 1.104.895 2 2 2h1.198c1.105 0 2 .895 2 2V54.25c0 1.105-.895 2-2 2H2.075c-1.105 0-2 .895-2 2v10.063c0 1.104.895 2 2 2H86.79c1.105 0 2-.896 2-2V58.25zM83.593 8.375c0 .552-.448 1-1 1h-6.837c-.552 0-1-.448-1-1V5.687c0-.552.448-1 1-1h6.837c.552 0 1 .448 1 1v2.688zm-63.285 1c-.552 0-1-.448-1-1V5.687c0-.552.448-1 1-1h6.664c.552 0 1 .448 1 1v2.688c0 .552-.448 1-1 1h-6.664zM33.17 5.687c0-.552.448-1 1-1h6.664c.552 0 1 .448 1 1v2.688c0 .552-.448 1-1 1H34.17c-.552 0-1-.448-1-1V5.687zm13.862 0c0-.552.448-1 1-1h6.664c.552 0 1 .448 1 1v2.688c0 .552-.448 1-1 1h-6.664c-.552 0-1-.448-1-1V5.687zm13.862 0c0-.552.448-1 1-1h6.664c.552 0 1 .448 1 1v2.688c0 .552-.448 1-1 1h-6.664c-.552 0-1-.448-1-1V5.687zm-55.621 0c0-.552.448-1 1-1h6.837c.552 0 1 .448 1 1v2.688c0 .552-.448 1-1 1H6.273c-.552 0-1-.448-1-1V5.687zm5.198 10.375c0-1.104.896-2 2-2h63.924c1.105 0 2 .896 2 2V54.25c0 1.105-.895 2-2 2H12.471c-1.104 0-2-.895-2-2V16.062zm16.5 44.876c.553 0 1 .447 1 1v2.687c0 .552-.447 1-1 1h-6.663c-.552 0-1-.448-1-1v-2.688c0-.552.448-1 1-1h6.664zm6.2 1c0-.553.447-1 1-1h6.663c.552 0 1 .447 1 1v2.687c0 .552-.448 1-1 1H34.17c-.552 0-1-.448-1-1v-2.688zm13.861 0c0-.553.448-1 1-1h6.664c.552 0 1 .447 1 1v2.687c0 .552-.448 1-1 1h-6.664c-.552 0-1-.448-1-1v-2.688zm13.862 0c0-.553.448-1 1-1h6.664c.552 0 1 .447 1 1v2.687c0 .552-.448 1-1 1h-6.664c-.552 0-1-.448-1-1v-2.688zm-55.621 0c0-.553.448-1 1-1h6.837c.552 0 1 .447 1 1v2.687c0 .552-.448 1-1 1H6.273c-.552 0-1-.448-1-1v-2.688zm78.32 2.687c0 .552-.448 1-1 1h-6.837c-.552 0-1-.448-1-1v-2.688c0-.552.448-1 1-1h6.837c.552 0 1 .448 1 1v2.688z"/>
    <path fill="#484848" d="M39.666 23.224c-1.333-.802-3.03.158-3.03 1.714v20.437c0 1.555 1.697 2.515 3.03 1.714L56.664 36.87c1.293-.777 1.293-2.65 0-3.428L39.666 23.224zm2.168 8.704c0-.777.849-1.257 1.515-.857l5.37 3.228c.645.389.645 1.326 0 1.714l-5.37 3.228c-.666.4-1.515-.08-1.515-.857v-6.456z"/>
    <path fill="url(#paint1_linear)" d="M39.666 23.224c-1.333-.802-3.03.158-3.03 1.714v20.437c0 1.555 1.697 2.515 3.03 1.714L56.664 36.87c1.293-.777 1.293-2.65 0-3.428L39.666 23.224zm2.168 8.704c0-.777.849-1.257 1.515-.857l5.37 3.228c.645.389.645 1.326 0 1.714l-5.37 3.228c-.666.4-1.515-.08-1.515-.857v-6.456z"/>
    <defs>
        <linearGradient id="paint0_linear" x1="44.433" x2="44.433" y1="0" y2="70.313" gradientUnits="userSpaceOnUse">
            <stop stop-color="#fff"/>
            <stop offset="1" stop-color="#fff" stop-opacity="0"/>
        </linearGradient>
        <linearGradient id="paint1_linear" x1="48.075" x2="48.075" y1="21.402" y2="48.91" gradientUnits="userSpaceOnUse">
            <stop stop-color="#fff"/>
            <stop offset="1" stop-color="#fff" stop-opacity="0"/>
        </linearGradient>
    </defs>
</svg>
